<?xml version="1.0" standalone="no"?>
<!DOCTYPE svg PUBLIC "-//W3C//DTD SVG 20010904//EN"
 "http://www.w3.org/TR/2001/REC-SVG-20010904/DTD/svg10.dtd">
<svg version="1.0" xmlns="http://www.w3.org/2000/svg"
 width="1045.000000pt" height="588.000000pt" viewBox="0 0 1045.000000 588.000000"
 preserveAspectRatio="xMidYMid meet">
<metadata>
Created by potrace 1.16, written by Peter Selinger 2001-2019
</metadata>
<g transform="translate(0.000000,588.000000) scale(0.100000,-0.100000)"
fill="#000000" stroke="none">
<path d="M1425 4509 c-429 -58 -773 -300 -959 -674 -105 -211 -149 -383 -149
-590 0 -181 44 -378 119 -527 l34 -67 -60 -32 c-194 -103 -326 -320 -338 -555
-9 -203 52 -360 197 -505 137 -137 284 -199 471 -199 52 0 122 7 155 15 81 19
79 20 94 -22 21 -61 84 -135 143 -171 171 -102 391 -34 477 148 22 47 26 68
26 145 -1 73 -5 99 -23 136 -37 75 -86 124 -159 160 -37 19 -69 34 -70 34 -1
1 4 23 12 50 8 26 15 66 15 87 l0 39 128 -7 c148 -8 304 11 428 52 99 32 258
112 354 178 143 98 303 276 375 420 75 147 32 284 -109 347 -41 18 -61 21
-115 15 -91 -8 -126 -35 -210 -158 -148 -221 -343 -342 -588 -367 -248 -26
-468 55 -654 239 -86 85 -102 107 -147 200 -109 225 -111 468 -6 690 200 424
728 587 1131 349 78 -46 218 -187 281 -282 82 -125 101 -115 -240 -119 -322
-3 -322 -3 -387 -69 -45 -45 -73 -105 -74 -159 -1 -54 43 -150 86 -186 62 -52
97 -55 583 -52 443 3 450 3 491 25 88 47 119 121 110 262 -11 177 -92 430
-180 563 -69 103 -195 245 -276 310 -147 117 -356 220 -528 258 -103 24 -333
34 -438 19z m-586 -2030 c225 -51 382 -284 343 -508 -25 -149 -116 -272 -249
-338 -66 -32 -86 -37 -165 -41 -197 -10 -357 82 -438 251 -143 297 71 643 400
646 36 0 85 -4 109 -10z m551 -790 c60 -27 88 -54 116 -114 67 -141 -20 -300
-179 -329 -102 -19 -221 61 -252 168 -55 188 137 356 315 275z"/>
<path d="M3431 3545 c-85 -24 -140 -70 -181 -150 l-35 -68 -4 -161 c-4 -219
14 -298 90 -374 67 -68 171 -96 299 -82 85 10 115 18 172 47 56 27 70 59 43
99 -19 30 -47 29 -125 -2 -31 -12 -74 -18 -137 -18 -98 -1 -123 9 -165 65 -20
27 -44 148 -35 173 6 14 37 16 246 16 277 0 261 -6 261 102 -1 176 -63 293
-184 343 -55 23 -180 28 -245 10z m172 -119 c73 -26 100 -67 112 -168 l7 -58
-186 0 -186 0 0 33 c0 52 27 131 54 156 49 46 130 61 199 37z"/>
<path d="M4093 3550 c-12 -5 -26 -18 -32 -29 -17 -31 -14 -551 3 -624 31 -130
111 -189 258 -188 99 0 167 19 218 60 l37 29 17 -29 c21 -36 68 -61 113 -61
73 0 87 61 26 117 l-38 35 -5 331 -5 331 -24 19 c-30 25 -62 24 -89 -1 -22
-20 -22 -25 -22 -307 l0 -286 -42 -42 c-72 -71 -201 -85 -267 -29 -44 37 -51
91 -51 383 0 233 -2 259 -17 273 -25 22 -54 28 -80 18z"/>
<path d="M5263 3551 c-43 -11 -119 -57 -139 -84 -11 -15 -18 -18 -21 -9 -3 7
-16 26 -29 42 -45 53 -127 62 -159 17 -23 -33 -18 -53 23 -91 l37 -35 5 -325
c4 -280 7 -328 21 -341 22 -22 75 -22 99 0 19 17 20 31 20 283 0 249 1 268 21
309 35 72 66 87 192 93 100 5 110 7 128 29 26 32 21 69 -12 94 -30 21 -132 32
-186 18z"/>
<path d="M5778 3550 c-62 -11 -143 -56 -179 -100 -61 -73 -73 -126 -73 -320 0
-195 12 -247 75 -323 78 -95 277 -130 413 -73 55 23 111 81 142 148 29 62 29
65 29 248 0 183 0 186 -29 248 -35 75 -97 134 -164 156 -61 20 -155 27 -214
16z m172 -152 c33 -17 51 -35 68 -68 20 -40 22 -59 22 -196 0 -162 -8 -203
-48 -246 -34 -37 -82 -51 -158 -46 -72 4 -107 24 -139 79 -18 31 -20 52 -20
209 0 157 2 179 20 210 27 47 94 80 160 80 33 0 67 -8 95 -22z"/>
<path d="M6360 3540 c-29 -29 -25 -61 14 -97 22 -21 35 -45 40 -70 3 -21 6
-236 6 -478 0 -242 4 -445 8 -451 13 -21 52 -34 77 -28 48 12 55 36 55 196 0
82 2 148 4 148 3 0 20 -9 38 -19 45 -27 134 -40 208 -30 88 13 126 35 178 107
50 69 65 160 60 360 -3 147 -7 173 -27 218 -26 61 -81 117 -135 139 -91 38
-237 26 -322 -26 -31 -19 -31 -19 -50 2 -42 48 -121 62 -154 29z m467 -136
c65 -49 68 -59 71 -257 3 -173 2 -184 -20 -227 -31 -61 -76 -85 -155 -84 -50
0 -71 6 -110 30 l-48 30 0 239 0 239 55 29 c47 25 64 28 117 25 43 -3 71 -10
90 -24z"/>
<path d="M7448 3546 c-99 -27 -175 -102 -204 -203 -12 -42 -15 -93 -12 -231
l3 -178 33 -66 c58 -119 136 -161 296 -160 100 1 204 27 250 63 30 24 35 68
10 93 -20 21 -38 20 -103 -5 -62 -23 -162 -35 -215 -25 -42 8 -90 46 -112 88
-8 16 -18 61 -21 99 l-6 69 239 0 c134 0 246 4 254 10 18 11 18 163 0 240 -14
59 -64 133 -113 166 -72 49 -202 66 -299 40z m167 -117 c76 -21 125 -102 125
-204 l0 -25 -185 0 -185 0 0 33 c0 52 27 131 54 156 27 25 88 50 126 51 14 0
43 -5 65 -11z"/>
<path d="M8197 3542 c-37 -10 -80 -28 -95 -39 -50 -37 -35 -113 22 -113 13 0
45 10 72 22 36 16 69 22 124 22 126 1 169 -39 178 -166 l5 -68 -110 0 c-176 0
-265 -24 -325 -87 -80 -84 -76 -252 9 -337 48 -48 114 -68 223 -68 94 0 161
21 206 63 20 19 21 19 34 -6 31 -58 127 -79 162 -35 26 32 23 45 -19 91 l-38
42 -5 251 c-5 234 -7 254 -29 303 -27 62 -51 85 -114 113 -70 31 -209 36 -300
12z m297 -539 c-2 -135 -48 -183 -177 -183 -116 0 -167 40 -167 130 0 106 61
140 245 137 l100 -2 -1 -82z"/>
<path d="M9202 3549 c-57 -10 -99 -28 -148 -65 l-31 -24 -12 23 c-29 54 -121
78 -161 42 -30 -27 -25 -59 18 -99 l37 -35 3 -325 c3 -307 4 -325 22 -341 27
-25 80 -22 102 6 16 19 18 49 18 306 l0 285 38 38 c85 85 244 80 297 -10 19
-33 20 -55 24 -322 3 -251 5 -289 20 -301 29 -27 73 -25 101 3 19 19 20 33 20
313 0 328 -6 369 -63 434 -18 20 -50 44 -72 54 -51 22 -145 30 -213 18z"/>
<path d="M9930 3547 c-120 -27 -172 -77 -136 -131 20 -32 44 -33 116 -4 38 15
78 21 130 22 125 1 162 -35 176 -167 l7 -67 -109 0 c-198 0 -293 -30 -349
-109 -25 -36 -30 -54 -33 -116 -9 -162 61 -245 222 -265 89 -11 182 5 238 40
l47 29 35 -35 c32 -32 57 -40 111 -34 32 3 45 20 45 56 0 24 -7 38 -24 49 -13
9 -29 28 -35 43 -5 15 -12 131 -14 262 -3 165 -8 247 -18 275 -19 55 -94 130
-144 145 -60 17 -203 21 -265 7z m284 -544 c-2 -135 -48 -183 -177 -183 -116
0 -167 40 -167 130 0 106 61 140 245 137 l100 -2 -1 -82z"/>
</g>
</svg>
